HIERARCHY
ROOT Pelvis
{
	OFFSET 0.000000 0.000000 0.000000
	CHANNELS 6 Xposition Yposition Zposition Xrotation Yrotation Zrotation
	JOINT LeftUpLeg_virtual
	{
		OFFSET 0.000000 0.000000 0.000000
		CHANNELS 3 Xrotation Yrotation Zrotation
		JOINT LeftUpLeg
		{
			OFFSET 18.735201 -5.666702 -4.541200
			CHANNELS 3 Xrotation Yrotation Zrotation
			JOINT LeftLeg
			{
				OFFSET -0.021200 -31.938179 0.493100
				CHANNELS 3 Xrotation Yrotation Zrotation
				JOINT LeftFoot
				{
					OFFSET 0.021200 -31.938179 -4.336299
					CHANNELS 3 Xrotation Yrotation Zrotation
					JOINT LeftToeBase
					{
						OFFSET 0.943001 -26.722000 15.023500
						CHANNELS 3 Xrotation Yrotation Zrotation
						End Site
						{
							OFFSET 0 0 0
						}
					}
				}
			}
		}
	}
	JOINT RightUpLeg_virtual
	{
		OFFSET 0.000000 0.000000 0.000000
		CHANNELS 3 Xrotation Yrotation Zrotation
		JOINT RightUpLeg
		{
			OFFSET -18.735201 -5.666702 -4.541200
			CHANNELS 3 Xrotation Yrotation Zrotation
			JOINT RightLeg
			{
				OFFSET 0.018946 -31.938133 0.493100
				CHANNELS 3 Xrotation Yrotation Zrotation
				JOINT RightFoot
				{
					OFFSET -0.018946 -31.938126 -4.336299
					CHANNELS 3 Xrotation Yrotation Zrotation
					JOINT RightToeBase
					{
						OFFSET -0.943001 -26.722004 15.023500
						CHANNELS 3 Xrotation Yrotation Zrotation
						End Site
						{
							OFFSET 0 0 0
						}
					}
				}
			}
		}
	}
	JOINT Hips_virtual
	{
		OFFSET 0.000000 0.000000 0.000000
		CHANNELS 3 Xrotation Yrotation Zrotation
		JOINT Hips
		{
			OFFSET -0.000000 -0.000000 -0.000000
			CHANNELS 3 Xrotation Yrotation Zrotation
			JOINT Spine
			{
				OFFSET 0.000000 10.199997 -0.299500
				CHANNELS 3 Xrotation Yrotation Zrotation
				JOINT Spine1
				{
					OFFSET 0.000000 11.900002 -1.516600
					CHANNELS 3 Xrotation Yrotation Zrotation
					JOINT Spine2
					{
						OFFSET 0.000000 13.600006 -2.842500
						CHANNELS 3 Xrotation Yrotation Zrotation
						JOINT Neck_virtual
						{
							OFFSET 0.000000 0.000000 0.000000
							CHANNELS 3 Xrotation Yrotation Zrotation
							JOINT Neck
							{
								OFFSET 0.000000 9.624100 -2.890100
								CHANNELS 3 Xrotation Yrotation Zrotation
								JOINT Head
								{
									OFFSET 0.000000 14.068802 -1.351900
									CHANNELS 3 Xrotation Yrotation Zrotation
									End Site
									{
										OFFSET 0 0 0
									}
								}
							}
						}
						JOINT LeftShoulder_virtual
						{
							OFFSET 0.000000 0.000000 0.000000
							CHANNELS 3 Xrotation Yrotation Zrotation
							JOINT LeftShoulder
							{
								OFFSET 15.263000 10.923401 -0.547700
								CHANNELS 3 Xrotation Yrotation Zrotation
								JOINT LeftArm
								{
									OFFSET 25.438599 -2.830597 -13.032500
									CHANNELS 3 Xrotation Yrotation Zrotation
									JOINT LeftForeArm
									{
										OFFSET 29.960503 0.000000 0.000000
										CHANNELS 3 Xrotation Yrotation Zrotation
										JOINT LeftHand
										{
											OFFSET 27.849251 0.000000 0.000000
											CHANNELS 3 Xrotation Yrotation Zrotation
											End Site
											{
												OFFSET 0 0 0
											}
										}
									}
								}
							}
						}
						JOINT RightShoulder_virtual
						{
							OFFSET 0.000000 0.000000 0.000000
							CHANNELS 3 Xrotation Yrotation Zrotation
							JOINT RightShoulder
							{
								OFFSET -15.263000 10.923401 -0.547700
								CHANNELS 3 Xrotation Yrotation Zrotation
								JOINT RightArm
								{
									OFFSET -25.438599 -2.830597 -13.032500
									CHANNELS 3 Xrotation Yrotation Zrotation
									JOINT RightForeArm
									{
										OFFSET -29.960503 0.000000 0.000000
										CHANNELS 3 Xrotation Yrotation Zrotation
										JOINT RightHand
										{
											OFFSET -27.849251 0.000000 0.000000
											CHANNELS 3 Xrotation Yrotation Zrotation
											End Site
											{
												OFFSET 0 0 0
											}
										}
									}
								}
							}
						}
					}
				}
			}
		}
	}
}
MOTION
Frames: 4
Frame Time: 0.03333333
-2.696292 90.959366 0.782471 0.000000 0.000000 0.000000 -6.162520 -24.791729 1.804124 -16.653757 9.427077 10.976854 33.179853 9.214659 1.561766 -2.049768 18.251539 -12.748509 0.000000 0.000000 0.000000 -6.162520 -24.791729 1.804124 -6.885063 -34.232553 -13.851149 38.693046 7.457369 -6.576728 -29.234135 -21.382191 5.249910 0.000000 0.000000 0.000000 -6.162520 -24.791729 1.804124 0.000000 -0.000001 0.000000 5.497928 -3.032342 -2.416655 1.467849 -2.966940 -0.448227 0.000000 0.000000 0.000000 1.462564 -2.818552 0.261231 -0.345852 0.047682 -1.114687 0.000000 0.000000 0.000000 1.462564 -2.818552 0.261231 -0.595443 -16.332003 -20.041821 13.316280 11.285355 -35.484803 -179.999308 -83.343799 -179.999295 0.000000 0.000000 0.000000 1.462564 -2.818552 0.261231 0.930375 17.936850 10.502396 6.490567 30.847737 41.925101 179.999500 86.604190 -179.999527 0.000000 0.000000 0.000000 
-3.480051 91.118660 0.970463 0.000000 0.000000 0.000000 -6.266289 -26.191214 1.607541 -16.802156 9.299688 11.362990 34.267872 9.030105 1.585179 -1.195861 19.486567 -12.233530 0.000000 0.000000 0.000000 -6.266289 -26.191214 1.607541 -5.936919 -33.807510 -13.039883 37.803676 7.623743 -6.552869 -29.138263 -20.729925 4.937878 0.000000 0.000000 0.000000 -6.266289 -26.191214 1.607541 0.000000 -0.000001 0.000000 5.563753 -2.843937 -2.379896 1.469060 -2.839395 -0.460261 0.000000 0.000000 0.000000 1.463317 -2.694939 0.220314 -0.359223 0.074621 -1.087029 0.000000 0.000000 0.000000 1.463317 -2.694939 0.220314 -0.595444 -16.332003 -20.041821 12.420920 10.550271 -35.769718 -179.999786 -83.608182 -179.999786 0.000000 0.000000 0.000000 1.463317 -2.694939 0.220314 0.930387 18.037672 10.376101 6.836817 30.018927 41.382863 179.998680 85.726483 -179.998735 0.000000 0.000000 0.000000 
-4.198405 91.286018 1.155071 0.000000 0.000000 0.000000 -6.376193 -27.589593 1.405920 -16.702352 9.223867 11.686477 34.972566 8.724026 1.607928 -0.263649 20.853835 -11.892672 0.000000 0.000000 0.000000 -6.376193 -27.589593 1.405920 -5.005309 -33.210811 -12.263769 36.866755 7.541518 -6.513444 -28.920285 -20.001391 4.794076 0.000000 0.000000 0.000000 -6.376193 -27.589593 1.405920 0.000000 0.000000 0.000000 5.618891 -2.599858 -2.346400 1.470253 -2.697861 -0.473616 0.000000 0.000000 0.000000 1.463942 -2.557627 0.176189 -0.351328 0.113985 -1.041038 0.000000 0.000000 0.000000 1.463942 -2.557627 0.176189 -0.595444 -16.331997 -20.041821 11.555120 9.778311 -36.062299 -179.999582 -83.889708 -179.999554 0.000000 0.000000 0.000000 1.463942 -2.557627 0.176189 0.926479 18.152628 10.275618 7.261004 29.087535 40.849162 179.999486 84.752484 -179.999513 0.000000 0.000000 0.000000 
-4.831301 91.465263 1.331432 0.000000 0.000000 0.000000 -6.492622 -28.983279 1.200272 -16.883183 9.203200 11.753746 35.398193 8.736491 1.608070 0.562377 21.035540 -11.523283 0.000000 0.000000 0.000000 -6.492622 -28.983279 1.200272 -4.137282 -32.462168 -11.567713 35.900567 7.257080 -6.451824 -28.579535 -19.209788 4.795641 0.000000 0.000000 0.000000 -6.492622 -28.983279 1.200272 0.000000 0.000001 0.000000 5.661200 -2.288125 -2.315170 1.471477 -2.547691 -0.487785 0.000000 0.000000 0.000000 1.464451 -2.412450 0.130488 -0.320654 0.166069 -0.975251 0.000000 0.000000 0.000000 1.464451 -2.412450 0.130488 -0.595444 -16.332002 -20.041821 10.825685 9.127633 -36.348849 -179.999937 -84.145526 -179.999923 0.000000 0.000000 0.000000 1.464451 -2.412450 0.130488 0.917853 18.249080 10.245465 7.737183 28.253508 40.318132 179.999732 83.844028 -179.999745 0.000000 0.000000 0.000000 
